<svg baseProfile="full" xmlns="http://www.w3.org/2000/svg" width="14" height="14" preserveAspectRatio="none" shape-rendering="geometricPrecision"><path fill="#b4b2be" d="M7.009-.007c1.935 0 3.687.785 4.957 2.054v.004a6.97 6.97 0 012.055 4.953 6.97 6.97 0 01-2.055 4.951v.004a6.984 6.984 0 01-4.957 2.051c-1.93 0-3.68-.783-4.951-2.053h-.002v-.002h-.002a6.999 6.999 0 01.002-9.904v-.004h.004A6.983 6.983 0 017.009-.007zm.325 6.824l4.969 2.869a5.909 5.909 0 00.639-2.682 5.904 5.904 0 00-1.735-4.194l-.004-.004a5.9 5.9 0 00-3.869-1.725v5.736zm4.646 3.428l-5.108-2.95a.327.327 0 01-.184-.291V1.081a5.903 5.903 0 00-3.87 1.725v.004a5.905 5.905 0 00-1.736 4.194c0 1.638.663 3.12 1.736 4.194a5.916 5.916 0 004.191 1.733 5.897 5.897 0 004.194-1.733h.004c.289-.291.549-.612.773-.953z"/></svg>