<svg width="20" height="20" fill="none" xmlns="http://www.w3.org/2000/svg"><path d="M10.006 1.8c2.673 0 2.99.012 4.041.06.977.042 1.505.206 1.857.343.465.18.801.399 1.149.746.352.352.567.684.746 1.149.137.351.301.882.344 1.855.047 1.055.06 1.371.06 4.04 0 2.671-.013 2.987-.06 4.038-.043.977-.207 1.504-.344 1.856-.18.465-.398.8-.746 1.148a3.079 3.079 0 01-1.15.746c-.35.137-.883.301-1.856.344-1.055.047-1.372.059-4.041.059-2.674 0-2.99-.012-4.042-.059-.977-.043-1.504-.207-1.856-.344a3.095 3.095 0 01-1.15-.746 3.076 3.076 0 01-.746-1.148c-.137-.352-.3-.883-.344-1.856-.047-1.054-.058-1.37-.058-4.039 0-2.672.011-2.988.058-4.039.043-.976.207-1.504.344-1.855.18-.465.399-.801.747-1.149a3.078 3.078 0 011.149-.746c.352-.137.883-.3 1.856-.344 1.052-.046 1.368-.058 4.042-.058zm0-1.8C7.289 0 6.949.012 5.882.059 4.82.105 4.088.277 3.455.523c-.66.258-1.22.598-1.774 1.157A4.9 4.9 0 00.524 3.45C.278 4.085.106 4.811.059 5.874.012 6.945 0 7.285 0 10s.012 3.055.059 4.121c.047 1.063.219 1.793.465 2.426.258.66.598 1.219 1.157 1.773a4.891 4.891 0 001.77 1.153c.637.246 1.364.418 2.427.465 1.067.046 1.408.058 4.124.058 2.716 0 3.056-.012 4.123-.058 1.064-.047 1.794-.22 2.428-.465a4.891 4.891 0 001.77-1.153 4.89 4.89 0 001.153-1.77c.247-.636.419-1.363.465-2.425.047-1.066.059-1.406.059-4.121 0-2.715-.012-3.055-.059-4.121-.046-1.063-.218-1.793-.465-2.426a4.685 4.685 0 00-1.145-1.777 4.892 4.892 0 00-1.77-1.153C15.923.281 15.196.11 14.133.062 13.063.012 12.723 0 10.006 0z" fill="#8F8F8F"/><path d="M10.006 4.863A5.14 5.14 0 004.866 10a5.14 5.14 0 0010.28 0 5.14 5.14 0 00-5.14-5.137zm0 8.469A3.334 3.334 0 016.672 10a3.334 3.334 0 016.668 0 3.333 3.333 0 01-3.334 3.332zm6.543-8.672a1.2 1.2 0 11-2.4-.001 1.2 1.2 0 012.4.001z" fill="#8F8F8F"/></svg>