<svg xmlns="http://www.w3.org/2000/svg" preserveAspectRatio="xMidYMid" width="49.969" height="58"><path d="M41.634 22.233c.437 2.359 1.898 4.755 3.444 7.291 4.063 6.663 9.119 14.956-1.126 28.206a.693.693 0 01-.973.127.687.687 0 01-.127-.968c9.666-12.501 5.083-20.018 1.039-26.65-1.614-2.647-3.139-5.148-3.622-7.755C38.604 13.497 45.212.899 45.494.367a.696.696 0 01.937-.289.689.689 0 01.291.932c-.067.127-6.665 12.709-5.088 21.223zM20.603 50.34c-9.232 0-16.742-8.663-16.742-19.31 0-10.648 7.51-19.31 16.742-19.31 9.231 0 16.742 8.662 16.742 19.31 0 10.647-7.511 19.31-16.742 19.31zm0-37.24c-8.466 0-15.354 8.043-15.354 17.93 0 9.886 6.888 17.93 15.354 17.93s15.354-8.044 15.354-17.93c0-9.887-6.888-17.93-15.354-17.93zm-.607 25.897s-5.244-3.646-7.08-6.909c-1.835-3.262-.852-6.845 2.229-7.868 3.081-1.024 4.851 1.855 4.851 1.855s1.77-2.879 4.852-1.855c3.081 1.023 4.064 4.606 2.228 7.868-1.835 3.263-7.08 6.909-7.08 6.909zM13.542 7.423c-.03.013-3.078 1.414-6.082 5.029-2.77 3.333-6.073 9.294-6.073 18.761 0 6.631 2.358 12.218 7.008 16.605 3.49 3.292 7.037 4.638 7.072 4.652.324.12.509.46.434.795l-.937 4.194a.694.694 0 01-1.355-.299l.812-3.63c-1.183-.523-4.049-1.958-6.939-4.672-3.413-3.205-7.483-8.869-7.483-17.645 0-9.919 3.504-16.189 6.443-19.702 1.772-2.119 3.539-3.51 4.788-4.341C9.118 6.612 6.038 5.065 5.487.776A.693.693 0 016.863.601c.698 5.421 6.164 5.502 6.396 5.503a.69.69 0 01.283 1.319z" fill="#fff" fill-rule="evenodd"/></svg>